<?xml version="1.0" standalone="no"?>
<!DOCTYPE svg PUBLIC "-//W3C//DTD SVG 20010904//EN"
 "http://www.w3.org/TR/2001/REC-SVG-20010904/DTD/svg10.dtd">
<svg version="1.0" xmlns="http://www.w3.org/2000/svg"
 width="512.000000pt" height="512.000000pt" viewBox="0 0 512.000000 512.000000"
 preserveAspectRatio="xMidYMid meet">
<metadata>
Created by potrace 1.11, written by Peter Selinger 2001-2013
</metadata>
<g transform="translate(0.000000,512.000000) scale(0.100000,-0.100000)"
fill="#000000" stroke="none">
<path d="M337 4086 c-137 -49 -227 -150 -262 -292 -18 -73 -18 -2275 0 -2343
30 -117 92 -202 186 -258 89 -53 139 -59 477 -58 295 0 302 0 303 -20 0 -11 1
-156 1 -323 1 -166 4 -302 8 -302 5 0 153 145 331 322 l322 323 1511 0 c1456
1 1513 2 1571 20 138 43 236 153 270 300 17 78 14 2306 -4 2360 -40 119 -115
205 -224 256 l-72 34 -2175 2 -2175 3 -68 -24z"/>
</g>
</svg>
